<svg xmlns="http://www.w3.org/2000/svg" viewBox="0 0 200 200" width="200" height="200" fill="none">
  <rect width="200" height="200" rx="10" fill="#e8ecfd"/>
  <rect x="40" y="40" width="120" height="120" rx="8" fill="#ffffff" stroke="#868e96" stroke-width="1.5"/>
  <path d="M64 96L3 6v14a2 2 0 002 2h14a2 2 0 002-2V6l-3-4z" fill="none"/>
  <g transform="translate(60, 55)">
    <path d="M40 10L30 24v28a4 4 0 004 4h28a4 4 0 004-4V24l-10-14z" fill="none" stroke="#4c6ef5" stroke-width="2.5" stroke-linecap="round" stroke-linejoin="round"/>
    <line x1="30" y1="24" x2="66" y2="24" stroke="#4c6ef5" stroke-width="2.5" stroke-linecap="round"/>
    <path d="M52 34a8 8 0 01-16 0" fill="none" stroke="#4c6ef5" stroke-width="2.5" stroke-linecap="round" stroke-linejoin="round"/>
  </g>
  <text x="100" y="170" text-anchor="middle" font-family="'Inter','Segoe UI','Helvetica Neue',Arial,sans-serif" font-size="12" font-weight="400" fill="#495057">No image available</text>
</svg>